<svg width="64" height="64" xmlns="http://www.w3.org/2000/svg" xmlns:xlink="http://www.w3.org/1999/xlink" xml:space="preserve" overflow="hidden"><g transform="translate(-624 -312)"><g><g><g><g><path d="M669.625 331.819C668.05 331.819 666.737 330.506 666.803 328.866 666.803 327.291 668.116 325.978 669.691 325.978 671.266 325.978 672.578 327.291 672.578 328.866 672.578 329.653 672.25 330.375 671.725 330.9 671.134 331.491 670.412 331.819 669.625 331.819ZM666.803 322.697C665.359 323.222 664.244 324.337 663.522 325.65 662.603 327.422 662.472 329.456 663.194 331.294L666.344 338.119 668.444 342.45C668.641 342.909 669.1 343.172 669.625 343.172 670.15 343.172 670.609 342.909 670.806 342.45L672.906 338.119 676.056 331.359C676.384 330.572 676.516 329.719 676.516 328.866 676.516 324.272 671.791 320.794 666.803 322.697Z" fill="#009F7B" fill-rule="nonzero" fill-opacity="1"/><path d="M655.188 359.775 644.688 354.525 644.688 333.131 655.188 338.381 655.188 359.775ZM642.062 354.525 634.188 358.462 634.188 337.069 642.062 333.131 642.062 354.525ZM678.419 332.475 676.778 336.019 678.812 337.069 678.812 358.462 670.938 354.525 670.938 345.797 668.312 345.797 668.312 354.525 657.812 359.775 657.812 338.381 662.472 336.019 660.831 332.475 656.5 334.641 643.375 328.078 630.25 334.641 630.25 364.828 643.375 358.266 656.5 364.828 669.625 358.266 682.75 364.828 682.75 334.641 678.419 332.475Z" fill="#009F7B" fill-rule="nonzero" fill-opacity="1"/></g></g></g></g></g></svg>